<?xml version="1.0" encoding="utf-8"?>
<!-- Generator: Adobe Illustrator 22.1.0, SVG Export Plug-In . SVG Version: 6.00 Build 0)  -->
<svg version="1.1" id="Layer_1" xmlns="http://www.w3.org/2000/svg" xmlns:xlink="http://www.w3.org/1999/xlink" x="0px" y="0px"
	 viewBox="0 0 92 32" style="enable-background:new 0 0 92 32;" xml:space="preserve">
<style type="text/css">
	.st0{fill:#1D1D1B;}
	.st1{fill:#FFFFFF;}
</style>
<polygon class="st0" points="89.8,14.9 89.8,19.2 86.4,14.9 84.3,14.9 84.3,23 86.5,23 86.5,18.6 90,23 92,23 92,14.9 "/>
<g>
	<path class="st1" d="M79.5,28.2c2.8,0,4.4-1.3,4.4-3.5v0c0-2.1-1.6-2.8-4.1-3.5c-1-0.3-1.3-0.4-1.3-0.6v0c0-0.2,0.2-0.3,0.6-0.3
		c0.9,0,2.2,0.4,3.3,1l1.4-2.5c-1.2-0.8-2.9-1.2-4.6-1.2c-2.7,0-4.5,1.3-4.5,3.5v0c0,2.1,1.6,2.8,4.2,3.5c1,0.3,1.2,0.4,1.2,0.6v0
		c0,0.2-0.2,0.3-0.6,0.3c-1.2,0-2.6-0.4-3.8-1.1l-1.4,2.4C75.7,27.7,77.5,28.2,79.5,28.2"/>
	<path class="st1" d="M67.7,22c0.1-0.9,0.6-1.5,1.4-1.5c0.7,0,1.3,0.6,1.4,1.5H67.7z M74.4,23.2c0-3.1-1.7-5.6-5.3-5.6
		c-3.1,0-5.3,2.3-5.3,5.4v0c0,3.2,2.3,5.3,5.6,5.3c2.2,0,3.7-0.9,4.7-2.2l-2.3-1.8c-0.7,0.7-1.3,1-2.1,1c-0.9,0-1.6-0.5-1.9-1.4h6.6
		C74.4,23.6,74.4,23.4,74.4,23.2"/>
	<path class="st1" d="M45.8,28h4.3v-5.4c0-0.9,0.6-1.4,1.2-1.4c0.6,0,1.1,0.5,1.1,1.4V28h4.3v-5.4c0-0.9,0.6-1.4,1.2-1.4
		c0.6,0,1.1,0.5,1.1,1.4V28h4.3v-6.8c0-2.3-1.4-3.7-3.5-3.7c-1.6,0-2.6,0.7-3.5,1.7c-0.6-1.1-1.6-1.7-3-1.7c-1.4,0-2.4,0.8-3.1,1.6
		v-1.4h-4.3V28z"/>
	<path class="st1" d="M41,24.2c0,1-0.6,1.6-1.3,1.6c-0.5,0-1-0.4-1-1v0c0-0.6,0.5-1.1,1.3-1.1c0.4,0,0.7,0.1,1,0.2V24.2z M44.1,18.9
		c-0.9-0.9-2.3-1.3-4.3-1.3c-1.8,0-3.1,0.3-4.3,0.8l0.8,2.8c0.9-0.4,1.8-0.6,2.8-0.6c1.3,0,1.9,0.5,1.9,1.5v0.2
		c-0.5-0.2-1.6-0.4-2.4-0.4c-2.4,0-3.9,1.1-3.9,3.2v0c0,2,1.4,3.2,3.4,3.2c1.3,0,2.2-0.5,2.9-1.3v1h4.3v-5.8
		C45.2,20.7,44.9,19.7,44.1,18.9"/>
	<path class="st1" d="M28.3,28.3c2.4,0,4.4-0.8,5.8-2v-6.1h-6.4V23H30v1.3c-0.3,0.2-0.8,0.3-1.5,0.3c-1.8,0-3.1-1.3-3.1-3.1v0
		c0-1.8,1.2-3.1,2.9-3.1c1.1,0,2,0.4,2.9,1.1l2.5-3c-1.4-1.2-3.2-2-5.5-2c-4.1,0-7.2,2.9-7.2,6.8v0C20.9,25.5,24.2,28.3,28.3,28.3"
		/>
	<path class="st1" d="M7.4,19.9c0,0.9-0.8,1.4-1.9,1.4H4.4v-2.9h1.2C6.8,18.4,7.4,18.9,7.4,19.9L7.4,19.9z M19.5,22.8
		c-0.5,0.9-1.2,1.5-2.4,1.5c-1.4,0-2.5-1.2-2.5-2.9v0c0-1.6,1-2.9,2.5-2.9c1.2,0,1.9,0.7,2.4,1.6c0.3-1.6,1-3,2.1-4
		c-1.1-0.9-2.6-1.5-4.4-1.5c-2.5,0-4.6,1.2-5.8,3c-0.8-1.8-2.8-2.7-5.5-2.7H0V28h4.4v-3.6h1.4c1.9,0,3.5-0.5,4.6-1.5
		c0.7,3.2,3.5,5.3,6.7,5.3c2,0,3.5-0.6,4.6-1.5C20.5,25.7,19.8,24.4,19.5,22.8"/>
</g>
<g>
	<path class="st1" d="M0.1,4.5h2c1,0,1.6,0.7,1.6,1.6S3.1,7.6,2.1,7.6H0.5v2.2H0.1V4.5z M2,4.9H0.5v2.3H2c0.7,0,1.2-0.5,1.2-1.1
		S2.7,4.9,2,4.9z"/>
	<path class="st1" d="M7.1,4.4c1.6,0,2.6,1.2,2.6,2.8s-1,2.8-2.6,2.8c-1.6,0-2.6-1.2-2.6-2.8S5.5,4.4,7.1,4.4z M7.1,4.8
		c-1.3,0-2.1,1-2.1,2.3c0,1.3,0.8,2.3,2.1,2.3c1.3,0,2.1-1,2.1-2.3C9.2,5.8,8.3,4.8,7.1,4.8z"/>
	<path class="st1" d="M13.5,5.3l-1.3,4.6h-0.5l-1.5-5.3h0.5L12,9.2l1.3-4.7h0.4L15,9.2l1.3-4.7h0.5l-1.5,5.3h-0.5L13.5,5.3z"/>
	<path class="st1" d="M17.7,4.5H21v0.4h-2.9v2H21v0.4h-2.9v2.1H21v0.4h-3.4V4.5z"/>
	<path class="st1" d="M23.8,7.6h-1.2v2.2h-0.5V4.5h2c0.9,0,1.6,0.6,1.6,1.6c0,1-0.7,1.5-1.5,1.5l1.5,2.2h-0.6L23.8,7.6z M24.1,4.9
		h-1.5v2.3h1.5c0.7,0,1.2-0.5,1.2-1.2S24.8,4.9,24.1,4.9z"/>
	<path class="st1" d="M26.9,4.5h3.4v0.4h-2.9v2h2.9v0.4h-2.9v2.1h2.9v0.4h-3.4V4.5z"/>
	<path class="st1" d="M31.4,4.5h1.7c1.7,0,2.7,1.2,2.7,2.7c0,1.5-1,2.7-2.7,2.7h-1.7V4.5z M33.1,9.4c1.4,0,2.2-1,2.2-2.2
		c0-1.2-0.8-2.3-2.2-2.3h-1.2v4.5H33.1z"/>
	<path class="st1" d="M38.7,4.5h2.2c0.9,0,1.5,0.5,1.5,1.4c0,0.7-0.5,1.1-0.9,1.2c0.6,0.1,1,0.7,1,1.3c0,0.9-0.6,1.4-1.5,1.4h-2.2
		V4.5z M40.8,6.9c0.7,0,1-0.4,1-1c0-0.5-0.4-1-1-1h-1.7v2H40.8z M40.9,9.4C41.6,9.4,42,9,42,8.4c0-0.5-0.4-1.1-1.1-1.1h-1.7v2.1
		H40.9z"/>
	<path class="st1" d="M45.1,7.6l-2.1-3.1h0.6l1.8,2.6l1.8-2.6h0.6l-2.1,3.1v2.3h-0.5V7.6z"/>
</g>
</svg>
